<?xml version="1.0" encoding="UTF-8"?>
<svg xmlns="http://www.w3.org/2000/svg" width="1640" height="2200" viewBox="0 0 1640 2200">
  <defs>
    <filter id="shadow" x="-20%" y="-20%" width="140%" height="140%">
      <feDropShadow dx="0" dy="7" stdDeviation="7" flood-color="#0F172A" flood-opacity="0.11" />
    </filter>
    <marker id="arrow" markerWidth="8" markerHeight="8" refX="7" refY="4" orient="auto" markerUnits="strokeWidth">
      <path d="M 0 0 L 8 4 L 0 8 z" fill="#64748B" />
    </marker>
    <style>
      .title { font: 900 32px "Noto Sans KR", "Segoe UI", Arial, sans-serif; fill:#0F172A; }
      .subtitle { font: 700 14px "Noto Sans KR", "Segoe UI", Arial, sans-serif; fill:#475569; }
      .band-title { font: 900 17px "Noto Sans KR", "Segoe UI", Arial, sans-serif; }
      .entity-title { font: 900 15px "Noto Sans KR", "Segoe UI", Arial, sans-serif; fill:#FFFFFF; }
      .entity-subtitle { font: 800 12px "Noto Sans KR", "Segoe UI", Arial, sans-serif; fill:#334155; }
      .attr { font: 600 11px "Noto Sans KR", "Segoe UI", Arial, sans-serif; fill:#475569; }
      .rel-card { font: 900 10px "Segoe UI", Arial, sans-serif; fill:#334155; text-anchor:middle; }
      .rel-verb { font: 700 10px "Noto Sans KR", "Segoe UI", Arial, sans-serif; fill:#64748B; text-anchor:middle; }
      .legend { font: 800 12px "Noto Sans KR", "Segoe UI", Arial, sans-serif; fill:#334155; }
    </style>
  </defs>
  <rect width="1640" height="2200" fill="#F8FAFC" />
  <text x="58" y="54" class="title">Hotel PMS 논리 ERD</text>
  <text x="58" y="82" class="subtitle">업무 개념 중심 데이터 모델 · 컬럼 타입/물리 PK/FK 제외 · 운영 DB 설계 전 단계</text>
  <g transform="translate(950 34)">
    
      <rect x="0" y="0" width="16" height="16" rx="4" fill="#4F46E5" />
      <text x="24" y="13" class="legend">플랫폼 관리</text>
    
      <rect x="162" y="0" width="16" height="16" rx="4" fill="#0F766E" />
      <text x="186" y="13" class="legend">호텔 운영 기준정보</text>
    
      <rect x="324" y="0" width="16" height="16" rx="4" fill="#B45309" />
      <text x="348" y="13" class="legend">예약 / 고객 / 단체</text>
    
      <rect x="486" y="0" width="16" height="16" rx="4" fill="#2563EB" />
      <text x="510" y="13" class="legend">운영 / 정산 / 지원</text>
    
  </g>
  
      <rect x="40" y="110" width="1560" height="255" rx="22" fill="#EEF2FF" stroke="#4F46E5" stroke-width="1.1" opacity="0.72" />
      <text x="62" y="144" class="band-title" fill="#4F46E5">플랫폼 관리</text>
      <rect x="40" y="430" width="1560" height="275" rx="22" fill="#ECFDF5" stroke="#0F766E" stroke-width="1.1" opacity="0.72" />
      <text x="62" y="464" class="band-title" fill="#0F766E">호텔 운영 기준정보</text>
      <rect x="40" y="790" width="1560" height="560" rx="22" fill="#FFF7ED" stroke="#B45309" stroke-width="1.1" opacity="0.72" />
      <text x="62" y="824" class="band-title" fill="#B45309">예약 / 고객 / 단체</text>
      <rect x="40" y="1410" width="1560" height="600" rx="22" fill="#EFF6FF" stroke="#2563EB" stroke-width="1.1" opacity="0.72" />
      <text x="62" y="1444" class="band-title" fill="#2563EB">운영 / 정산 / 지원</text>
  <g>
    <g class="relation">
      <path d="M 330 232 C 360 232, 360 232, 390 232" fill="none" stroke="#64748B" stroke-width="1.45" opacity="0.72" marker-end="url(#arrow)" />
      <rect x="308" y="216" width="104" height="30" rx="15" fill="#FFFFFF" stroke="#E2E8F0" opacity="0.96" />
      <text x="360" y="230" class="rel-card">1:N</text>
      <text x="360" y="243" class="rel-verb">관리</text>
    </g>
    <g class="relation">
      <path d="M 640 232 C 670 232, 670 232, 700 232" fill="none" stroke="#94A3B8" stroke-width="1.45" opacity="0.72" marker-end="url(#arrow)" />
      <rect x="618" y="216" width="104" height="30" rx="15" fill="#FFFFFF" stroke="#E2E8F0" opacity="0.96" />
      <text x="670" y="230" class="rel-card">1:N</text>
      <text x="670" y="243" class="rel-verb">계약</text>
    </g>
    <g class="relation">
      <path d="M 640 232 C 825 232, 825 232, 1010 232" fill="none" stroke="#64748B" stroke-width="1.45" opacity="0.72" marker-end="url(#arrow)" />
      <rect x="773" y="216" width="104" height="30" rx="15" fill="#FFFFFF" stroke="#E2E8F0" opacity="0.96" />
      <text x="825" y="230" class="rel-card">N:M</text>
      <text x="825" y="243" class="rel-verb">노출 대상</text>
    </g>
    <g class="relation">
      <path d="M 640 232 C 980 232, 980 232, 1320 232" fill="none" stroke="#94A3B8" stroke-width="1.45" opacity="0.72" marker-end="url(#arrow)" />
      <rect x="928" y="216" width="104" height="30" rx="15" fill="#FFFFFF" stroke="#E2E8F0" opacity="0.96" />
      <text x="980" y="230" class="rel-card">1:N</text>
      <text x="980" y="243" class="rel-verb">이력 보유</text>
    </g>
    <g class="relation">
      <path d="M 515 292 C 360 292, 360 510, 205 510" fill="none" stroke="#64748B" stroke-width="1.45" opacity="0.72" marker-end="url(#arrow)" />
      <rect x="308" y="385" width="104" height="30" rx="15" fill="#FFFFFF" stroke="#E2E8F0" opacity="0.96" />
      <text x="360" y="399" class="rel-card">1:N</text>
      <text x="360" y="412" class="rel-verb">보유</text>
    </g>
    <g class="relation">
      <path d="M 515 292 C 515 401, 515 401, 515 510" fill="none" stroke="#94A3B8" stroke-width="1.45" opacity="0.72" marker-end="url(#arrow)" />
      <rect x="463" y="385" width="104" height="30" rx="15" fill="#FFFFFF" stroke="#E2E8F0" opacity="0.96" />
      <text x="515" y="399" class="rel-card">1:N</text>
      <text x="515" y="412" class="rel-verb">정의</text>
    </g>
    <g class="relation">
      <path d="M 330 582 C 515 582, 515 582, 700 582" fill="none" stroke="#64748B" stroke-width="1.45" opacity="0.72" marker-end="url(#arrow)" />
      <rect x="463" y="566" width="104" height="30" rx="15" fill="#FFFFFF" stroke="#E2E8F0" opacity="0.96" />
      <text x="515" y="580" class="rel-card">1:N</text>
      <text x="515" y="593" class="rel-verb">포함</text>
    </g>
    <g class="relation">
      <path d="M 640 582 C 670 582, 670 582, 700 582" fill="none" stroke="#94A3B8" stroke-width="1.45" opacity="0.72" marker-end="url(#arrow)" />
      <rect x="618" y="566" width="104" height="30" rx="15" fill="#FFFFFF" stroke="#E2E8F0" opacity="0.96" />
      <text x="670" y="580" class="rel-card">1:N</text>
      <text x="670" y="593" class="rel-verb">분류</text>
    </g>
    <g class="relation">
      <path d="M 640 582 C 825 582, 825 582, 1010 582" fill="none" stroke="#64748B" stroke-width="1.45" opacity="0.72" marker-end="url(#arrow)" />
      <rect x="773" y="566" width="104" height="30" rx="15" fill="#FFFFFF" stroke="#E2E8F0" opacity="0.96" />
      <text x="825" y="580" class="rel-card">1:N</text>
      <text x="825" y="593" class="rel-verb">요금 적용</text>
    </g>
    <g class="relation">
      <path d="M 640 232 C 980 232, 980 582, 1320 582" fill="none" stroke="#94A3B8" stroke-width="1.45" opacity="0.72" marker-end="url(#arrow)" />
      <rect x="928" y="391" width="104" height="30" rx="15" fill="#FFFFFF" stroke="#E2E8F0" opacity="0.96" />
      <text x="980" y="405" class="rel-card">1:N</text>
      <text x="980" y="418" class="rel-verb">사용자 운영</text>
    </g>
    <g class="relation">
      <path d="M 515 292 C 515 586, 205 586, 205 880" fill="none" stroke="#64748B" stroke-width="1.45" opacity="0.72" marker-end="url(#arrow)" />
      <rect x="308" y="570" width="104" height="30" rx="15" fill="#FFFFFF" stroke="#E2E8F0" opacity="0.96" />
      <text x="360" y="584" class="rel-card">1:N</text>
      <text x="360" y="597" class="rel-verb">고객 보유</text>
    </g>
    <g class="relation">
      <path d="M 390 952 C 360 952, 360 952, 330 952" fill="none" stroke="#94A3B8" stroke-width="1.45" opacity="0.72" marker-end="url(#arrow)" />
      <rect x="308" y="936" width="104" height="30" rx="15" fill="#FFFFFF" stroke="#E2E8F0" opacity="0.96" />
      <text x="360" y="950" class="rel-card">1:N</text>
      <text x="360" y="963" class="rel-verb">등급 부여</text>
    </g>
    <g class="relation">
      <path d="M 515 292 C 515 586, 825 586, 825 880" fill="none" stroke="#64748B" stroke-width="1.45" opacity="0.72" marker-end="url(#arrow)" />
      <rect x="618" y="570" width="104" height="30" rx="15" fill="#FFFFFF" stroke="#E2E8F0" opacity="0.96" />
      <text x="670" y="584" class="rel-card">1:N</text>
      <text x="670" y="597" class="rel-verb">거래처 관리</text>
    </g>
    <g class="relation">
      <path d="M 950 952 C 980 952, 980 952, 1010 952" fill="none" stroke="#94A3B8" stroke-width="1.45" opacity="0.72" marker-end="url(#arrow)" />
      <rect x="928" y="936" width="104" height="30" rx="15" fill="#FFFFFF" stroke="#E2E8F0" opacity="0.96" />
      <text x="980" y="950" class="rel-card">1:N</text>
      <text x="980" y="963" class="rel-verb">주관/계약</text>
    </g>
    <g class="relation">
      <path d="M 330 952 C 330 1117, 545 1117, 545 1282" fill="none" stroke="#64748B" stroke-width="1.45" opacity="0.72" marker-end="url(#arrow)" />
      <rect x="385.5" y="1101" width="104" height="30" rx="15" fill="#FFFFFF" stroke="#E2E8F0" opacity="0.96" />
      <text x="437.5" y="1115" class="rel-card">1:N</text>
      <text x="437.5" y="1128" class="rel-verb">예약자</text>
    </g>
    <g class="relation">
      <path d="M 825 642 C 825 926, 670 926, 670 1210" fill="none" stroke="#94A3B8" stroke-width="1.45" opacity="0.72" marker-end="url(#arrow)" />
      <rect x="695.5" y="910" width="104" height="30" rx="15" fill="#FFFFFF" stroke="#E2E8F0" opacity="0.96" />
      <text x="747.5" y="924" class="rel-card">1:N</text>
      <text x="747.5" y="937" class="rel-verb">객실 지정</text>
    </g>
    <g class="relation">
      <path d="M 515 642 C 515 926, 670 926, 670 1210" fill="none" stroke="#64748B" stroke-width="1.45" opacity="0.72" marker-end="url(#arrow)" />
      <rect x="540.5" y="910" width="104" height="30" rx="15" fill="#FFFFFF" stroke="#E2E8F0" opacity="0.96" />
      <text x="592.5" y="924" class="rel-card">1:N</text>
      <text x="592.5" y="937" class="rel-verb">유형 예약</text>
    </g>
    <g class="relation">
      <path d="M 1010 952 C 1010 1117, 795 1117, 795 1282" fill="none" stroke="#94A3B8" stroke-width="1.45" opacity="0.72" marker-end="url(#arrow)" />
      <rect x="850.5" y="1101" width="104" height="30" rx="15" fill="#FFFFFF" stroke="#E2E8F0" opacity="0.96" />
      <text x="902.5" y="1115" class="rel-card">1:N</text>
      <text x="902.5" y="1128" class="rel-verb">단체 예약</text>
    </g>
    <g class="relation">
      <path d="M 1135 1012 C 1135 1111, 1135 1111, 1135 1210" fill="none" stroke="#64748B" stroke-width="1.45" opacity="0.72" marker-end="url(#arrow)" />
      <rect x="1083" y="1095" width="104" height="30" rx="15" fill="#FFFFFF" stroke="#E2E8F0" opacity="0.96" />
      <text x="1135" y="1109" class="rel-card">1:N</text>
      <text x="1135" y="1122" class="rel-verb">룸잉 구성</text>
    </g>
    <g class="relation">
      <path d="M 795 1282 C 902.5 1282, 902.5 1282, 1010 1282" fill="none" stroke="#94A3B8" stroke-width="1.45" opacity="0.72" marker-end="url(#arrow)" />
      <rect x="850.5" y="1266" width="104" height="30" rx="15" fill="#FFFFFF" stroke="#E2E8F0" opacity="0.96" />
      <text x="902.5" y="1280" class="rel-card">1:N</text>
      <text x="902.5" y="1293" class="rel-verb">배정</text>
    </g>
    <g class="relation">
      <path d="M 825 642 C 825 926, 1135 926, 1135 1210" fill="none" stroke="#64748B" stroke-width="1.45" opacity="0.72" marker-end="url(#arrow)" />
      <rect x="928" y="910" width="104" height="30" rx="15" fill="#FFFFFF" stroke="#E2E8F0" opacity="0.96" />
      <text x="980" y="924" class="rel-card">1:N</text>
      <text x="980" y="937" class="rel-verb">객실 배정</text>
    </g>
    <g class="relation">
      <path d="M 545 1282 C 545 1477, 330 1477, 330 1672" fill="none" stroke="#94A3B8" stroke-width="1.45" opacity="0.72" marker-end="url(#arrow)" />
      <rect x="385.5" y="1461" width="104" height="30" rx="15" fill="#FFFFFF" stroke="#E2E8F0" opacity="0.96" />
      <text x="437.5" y="1475" class="rel-card">1:1</text>
      <text x="437.5" y="1488" class="rel-verb">정산 생성</text>
    </g>
    <g class="relation">
      <path d="M 205 1012 C 205 1306, 205 1306, 205 1600" fill="none" stroke="#64748B" stroke-width="1.45" opacity="0.72" marker-end="url(#arrow)" />
      <rect x="153" y="1290" width="104" height="30" rx="15" fill="#FFFFFF" stroke="#E2E8F0" opacity="0.96" />
      <text x="205" y="1304" class="rel-card">1:N</text>
      <text x="205" y="1317" class="rel-verb">청구 대상</text>
    </g>
    <g class="relation">
      <path d="M 330 1672 C 360 1672, 360 1672, 390 1672" fill="none" stroke="#94A3B8" stroke-width="1.45" opacity="0.72" marker-end="url(#arrow)" />
      <rect x="308" y="1656" width="104" height="30" rx="15" fill="#FFFFFF" stroke="#E2E8F0" opacity="0.96" />
      <text x="360" y="1670" class="rel-card">1:N</text>
      <text x="360" y="1683" class="rel-verb">항목 포함</text>
    </g>
    <g class="relation">
      <path d="M 330 1672 C 515 1672, 515 1672, 700 1672" fill="none" stroke="#64748B" stroke-width="1.45" opacity="0.72" marker-end="url(#arrow)" />
      <rect x="463" y="1656" width="104" height="30" rx="15" fill="#FFFFFF" stroke="#E2E8F0" opacity="0.96" />
      <text x="515" y="1670" class="rel-card">1:N</text>
      <text x="515" y="1683" class="rel-verb">수납</text>
    </g>
    <g class="relation">
      <path d="M 795 1282 C 795 1477, 1010 1477, 1010 1672" fill="none" stroke="#94A3B8" stroke-width="1.45" opacity="0.72" marker-end="url(#arrow)" />
      <rect x="850.5" y="1461" width="104" height="30" rx="15" fill="#FFFFFF" stroke="#E2E8F0" opacity="0.96" />
      <text x="902.5" y="1475" class="rel-card">1:N</text>
      <text x="902.5" y="1488" class="rel-verb">서비스 주문</text>
    </g>
    <g class="relation">
      <path d="M 330 1672 C 670 1672, 670 1672, 1010 1672" fill="none" stroke="#64748B" stroke-width="1.45" opacity="0.72" marker-end="url(#arrow)" />
      <rect x="618" y="1656" width="104" height="30" rx="15" fill="#FFFFFF" stroke="#E2E8F0" opacity="0.96" />
      <text x="670" y="1670" class="rel-card">1:N</text>
      <text x="670" y="1683" class="rel-verb">청구 연결</text>
    </g>
    <g class="relation">
      <path d="M 825 642 C 825 1061, 1445 1061, 1445 1480" fill="none" stroke="#94A3B8" stroke-width="1.45" opacity="0.72" marker-end="url(#arrow)" />
      <rect x="1083" y="1045" width="104" height="30" rx="15" fill="#FFFFFF" stroke="#E2E8F0" opacity="0.96" />
      <text x="1135" y="1059" class="rel-card">1:N</text>
      <text x="1135" y="1072" class="rel-verb">청소 작업</text>
    </g>
    <g class="relation">
      <path d="M 825 642 C 825 1181, 1445 1181, 1445 1720" fill="none" stroke="#64748B" stroke-width="1.45" opacity="0.72" marker-end="url(#arrow)" />
      <rect x="1083" y="1165" width="104" height="30" rx="15" fill="#FFFFFF" stroke="#E2E8F0" opacity="0.96" />
      <text x="1135" y="1179" class="rel-card">1:N</text>
      <text x="1135" y="1192" class="rel-verb">보수 요청</text>
    </g>
    <g class="relation">
      <path d="M 1445 642 C 1445 1061, 1445 1061, 1445 1480" fill="none" stroke="#94A3B8" stroke-width="1.45" opacity="0.72" marker-end="url(#arrow)" />
      <rect x="1393" y="1045" width="104" height="30" rx="15" fill="#FFFFFF" stroke="#E2E8F0" opacity="0.96" />
      <text x="1445" y="1059" class="rel-card">1:N</text>
      <text x="1445" y="1072" class="rel-verb">담당</text>
    </g>
    <g class="relation">
      <path d="M 1445 642 C 1445 1181, 1445 1181, 1445 1720" fill="none" stroke="#64748B" stroke-width="1.45" opacity="0.72" marker-end="url(#arrow)" />
      <rect x="1393" y="1165" width="104" height="30" rx="15" fill="#FFFFFF" stroke="#E2E8F0" opacity="0.96" />
      <text x="1445" y="1179" class="rel-card">1:N</text>
      <text x="1445" y="1192" class="rel-verb">담당</text>
    </g>
    <g class="relation">
      <path d="M 515 292 C 515 1106, 515 1106, 515 1920" fill="none" stroke="#94A3B8" stroke-width="1.45" opacity="0.72" marker-end="url(#arrow)" />
      <rect x="463" y="1090" width="104" height="30" rx="15" fill="#FFFFFF" stroke="#E2E8F0" opacity="0.96" />
      <text x="515" y="1104" class="rel-card">1:N</text>
      <text x="515" y="1117" class="rel-verb">영업일 마감</text>
    </g>
    <g class="relation">
      <path d="M 515 292 C 515 1106, 1135 1106, 1135 1920" fill="none" stroke="#64748B" stroke-width="1.45" opacity="0.72" marker-end="url(#arrow)" />
      <rect x="773" y="1090" width="104" height="30" rx="15" fill="#FFFFFF" stroke="#E2E8F0" opacity="0.96" />
      <text x="825" y="1104" class="rel-card">1:N</text>
      <text x="825" y="1117" class="rel-verb">공지/문의</text>
    </g></g>
  <g>
    <g class="entity">
      <rect x="80" y="160" width="250" height="132" rx="16" fill="#FFFFFF" stroke="#4F46E5" stroke-width="1.3" filter="url(#shadow)" />
      <rect x="80" y="160" width="250" height="42" rx="16" fill="#4F46E5" />
      <path d="M 80 188 L 330 188 L 330 202 L 80 202 Z" fill="#4F46E5" />
      <text x="96" y="185" class="entity-title">플랫폼 관리자</text>
      <text x="96" y="222" class="entity-subtitle">Super Admin 계정</text>
      
        <text x="100" y="244" class="attr">• 관리자</text>
      
        <text x="100" y="260" class="attr">• 역할</text>
      
        <text x="100" y="276" class="attr">• 계정상태</text>
      
    </g>
    <g class="entity">
      <rect x="390" y="160" width="250" height="132" rx="16" fill="#FFFFFF" stroke="#4F46E5" stroke-width="1.3" filter="url(#shadow)" />
      <rect x="390" y="160" width="250" height="42" rx="16" fill="#4F46E5" />
      <path d="M 390 188 L 640 188 L 640 202 L 390 202 Z" fill="#4F46E5" />
      <text x="406" y="185" class="entity-title">입점 호텔</text>
      <text x="406" y="222" class="entity-subtitle">PMS 사용 호텔</text>
      
        <text x="410" y="244" class="attr">• 호텔명</text>
      
        <text x="410" y="260" class="attr">• 국가/도시</text>
      
        <text x="410" y="276" class="attr">• 운영상태</text>
      
        <text x="410" y="292" class="attr">• 기본통화</text>
      
    </g>
    <g class="entity">
      <rect x="700" y="160" width="250" height="132" rx="16" fill="#FFFFFF" stroke="#4F46E5" stroke-width="1.3" filter="url(#shadow)" />
      <rect x="700" y="160" width="250" height="42" rx="16" fill="#4F46E5" />
      <path d="M 700 188 L 950 188 L 950 202 L 700 202 Z" fill="#4F46E5" />
      <text x="716" y="185" class="entity-title">구독/계약</text>
      <text x="716" y="222" class="entity-subtitle">플랜 및 계약기간</text>
      
        <text x="720" y="244" class="attr">• 플랜</text>
      
        <text x="720" y="260" class="attr">• 계약기간</text>
      
        <text x="720" y="276" class="attr">• 청구상태</text>
      
    </g>
    <g class="entity">
      <rect x="1010" y="160" width="250" height="132" rx="16" fill="#FFFFFF" stroke="#4F46E5" stroke-width="1.3" filter="url(#shadow)" />
      <rect x="1010" y="160" width="250" height="42" rx="16" fill="#4F46E5" />
      <path d="M 1010 188 L 1260 188 L 1260 202 L 1010 202 Z" fill="#4F46E5" />
      <text x="1026" y="185" class="entity-title">광고 캠페인</text>
      <text x="1026" y="222" class="entity-subtitle">플랫폼 광고</text>
      
        <text x="1030" y="244" class="attr">• 광고주</text>
      
        <text x="1030" y="260" class="attr">• 집행기간</text>
      
        <text x="1030" y="276" class="attr">• 타겟</text>
      
        <text x="1030" y="292" class="attr">• 성과</text>
      
    </g>
    <g class="entity">
      <rect x="1320" y="160" width="250" height="132" rx="16" fill="#FFFFFF" stroke="#4F46E5" stroke-width="1.3" filter="url(#shadow)" />
      <rect x="1320" y="160" width="250" height="42" rx="16" fill="#4F46E5" />
      <path d="M 1320 188 L 1570 188 L 1570 202 L 1320 202 Z" fill="#4F46E5" />
      <text x="1336" y="185" class="entity-title">감사 로그</text>
      <text x="1336" y="222" class="entity-subtitle">변경/접근 이력</text>
      
        <text x="1340" y="244" class="attr">• 행위자</text>
      
        <text x="1340" y="260" class="attr">• 작업</text>
      
        <text x="1340" y="276" class="attr">• 발생시각</text>
      
    </g>
    <g class="entity">
      <rect x="80" y="510" width="250" height="132" rx="16" fill="#FFFFFF" stroke="#0F766E" stroke-width="1.3" filter="url(#shadow)" />
      <rect x="80" y="510" width="250" height="42" rx="16" fill="#0F766E" />
      <path d="M 80 538 L 330 538 L 330 552 L 80 552 Z" fill="#0F766E" />
      <text x="96" y="535" class="entity-title">동/건물</text>
      <text x="96" y="572" class="entity-subtitle">호텔 내 공간 단위</text>
      
        <text x="100" y="594" class="attr">• 건물명</text>
      
        <text x="100" y="610" class="attr">• 층수</text>
      
        <text x="100" y="626" class="attr">• 사용여부</text>
      
    </g>
    <g class="entity">
      <rect x="390" y="510" width="250" height="132" rx="16" fill="#FFFFFF" stroke="#0F766E" stroke-width="1.3" filter="url(#shadow)" />
      <rect x="390" y="510" width="250" height="42" rx="16" fill="#0F766E" />
      <path d="M 390 538 L 640 538 L 640 552 L 390 552 Z" fill="#0F766E" />
      <text x="406" y="535" class="entity-title">객실 유형</text>
      <text x="406" y="572" class="entity-subtitle">판매/요금 기준</text>
      
        <text x="410" y="594" class="attr">• 유형명</text>
      
        <text x="410" y="610" class="attr">• 기준/최대인원</text>
      
        <text x="410" y="626" class="attr">• 기본요금</text>
      
    </g>
    <g class="entity">
      <rect x="700" y="510" width="250" height="132" rx="16" fill="#FFFFFF" stroke="#0F766E" stroke-width="1.3" filter="url(#shadow)" />
      <rect x="700" y="510" width="250" height="42" rx="16" fill="#0F766E" />
      <path d="M 700 538 L 950 538 L 950 552 L 700 552 Z" fill="#0F766E" />
      <text x="716" y="535" class="entity-title">객실</text>
      <text x="716" y="572" class="entity-subtitle">실제 객실</text>
      
        <text x="720" y="594" class="attr">• 객실번호</text>
      
        <text x="720" y="610" class="attr">• 프론트상태</text>
      
        <text x="720" y="626" class="attr">• 청소상태</text>
      
    </g>
    <g class="entity">
      <rect x="1010" y="510" width="250" height="132" rx="16" fill="#FFFFFF" stroke="#0F766E" stroke-width="1.3" filter="url(#shadow)" />
      <rect x="1010" y="510" width="250" height="42" rx="16" fill="#0F766E" />
      <path d="M 1010 538 L 1260 538 L 1260 552 L 1010 552 Z" fill="#0F766E" />
      <text x="1026" y="535" class="entity-title">요금 정책</text>
      <text x="1026" y="572" class="entity-subtitle">일자별/계약 요금</text>
      
        <text x="1030" y="594" class="attr">• 숙박일</text>
      
        <text x="1030" y="610" class="attr">• 요금</text>
      
        <text x="1030" y="626" class="attr">• 통화</text>
      
        <text x="1030" y="642" class="attr">• 정책구분</text>
      
    </g>
    <g class="entity">
      <rect x="1320" y="510" width="250" height="132" rx="16" fill="#FFFFFF" stroke="#0F766E" stroke-width="1.3" filter="url(#shadow)" />
      <rect x="1320" y="510" width="250" height="42" rx="16" fill="#0F766E" />
      <path d="M 1320 538 L 1570 538 L 1570 552 L 1320 552 Z" fill="#0F766E" />
      <text x="1336" y="535" class="entity-title">직원/권한</text>
      <text x="1336" y="572" class="entity-subtitle">운영 사용자 RBAC</text>
      
        <text x="1340" y="594" class="attr">• 직원</text>
      
        <text x="1340" y="610" class="attr">• 부서</text>
      
        <text x="1340" y="626" class="attr">• 역할</text>
      
        <text x="1340" y="642" class="attr">• 메뉴권한</text>
      
    </g>
    <g class="entity">
      <rect x="80" y="880" width="250" height="132" rx="16" fill="#FFFFFF" stroke="#B45309" stroke-width="1.3" filter="url(#shadow)" />
      <rect x="80" y="880" width="250" height="42" rx="16" fill="#B45309" />
      <path d="M 80 908 L 330 908 L 330 922 L 80 922 Z" fill="#B45309" />
      <text x="96" y="905" class="entity-title">고객</text>
      <text x="96" y="942" class="entity-subtitle">투숙객 프로필</text>
      
        <text x="100" y="964" class="attr">• 성명</text>
      
        <text x="100" y="980" class="attr">• 연락처</text>
      
        <text x="100" y="996" class="attr">• 국적</text>
      
        <text x="100" y="1012" class="attr">• 문서상태</text>
      
    </g>
    <g class="entity">
      <rect x="390" y="880" width="250" height="132" rx="16" fill="#FFFFFF" stroke="#B45309" stroke-width="1.3" filter="url(#shadow)" />
      <rect x="390" y="880" width="250" height="42" rx="16" fill="#B45309" />
      <path d="M 390 908 L 640 908 L 640 922 L 390 922 Z" fill="#B45309" />
      <text x="406" y="905" class="entity-title">멤버십</text>
      <text x="406" y="942" class="entity-subtitle">VIP 등급/혜택</text>
      
        <text x="410" y="964" class="attr">• 등급</text>
      
        <text x="410" y="980" class="attr">• 승급기준</text>
      
        <text x="410" y="996" class="attr">• 혜택</text>
      
    </g>
    <g class="entity">
      <rect x="700" y="880" width="250" height="132" rx="16" fill="#FFFFFF" stroke="#B45309" stroke-width="1.3" filter="url(#shadow)" />
      <rect x="700" y="880" width="250" height="42" rx="16" fill="#B45309" />
      <path d="M 700 908 L 950 908 L 950 922 L 700 922 Z" fill="#B45309" />
      <text x="716" y="905" class="entity-title">B2B 업체</text>
      <text x="716" y="942" class="entity-subtitle">기업/여행사</text>
      
        <text x="720" y="964" class="attr">• 업체명</text>
      
        <text x="720" y="980" class="attr">• 계약조건</text>
      
        <text x="720" y="996" class="attr">• 정산방식</text>
      
    </g>
    <g class="entity">
      <rect x="1010" y="880" width="250" height="132" rx="16" fill="#FFFFFF" stroke="#B45309" stroke-width="1.3" filter="url(#shadow)" />
      <rect x="1010" y="880" width="250" height="42" rx="16" fill="#B45309" />
      <path d="M 1010 908 L 1260 908 L 1260 922 L 1010 922 Z" fill="#B45309" />
      <text x="1026" y="905" class="entity-title">단체/행사</text>
      <text x="1026" y="942" class="entity-subtitle">행사 및 객실 블록</text>
      
        <text x="1030" y="964" class="attr">• 행사명</text>
      
        <text x="1030" y="980" class="attr">• 투숙기간</text>
      
        <text x="1030" y="996" class="attr">• 블록수</text>
      
        <text x="1030" y="1012" class="attr">• 상태</text>
      
    </g>
    <g class="entity">
      <rect x="545" y="1210" width="250" height="132" rx="16" fill="#FFFFFF" stroke="#B45309" stroke-width="1.3" filter="url(#shadow)" />
      <rect x="545" y="1210" width="250" height="42" rx="16" fill="#B45309" />
      <path d="M 545 1238 L 795 1238 L 795 1252 L 545 1252 Z" fill="#B45309" />
      <text x="561" y="1235" class="entity-title">예약</text>
      <text x="561" y="1272" class="entity-subtitle">개별/단체 투숙 예약</text>
      
        <text x="565" y="1294" class="attr">• 체크인/아웃</text>
      
        <text x="565" y="1310" class="attr">• 예약상태</text>
      
        <text x="565" y="1326" class="attr">• 채널</text>
      
        <text x="565" y="1342" class="attr">• 예상금액</text>
      
    </g>
    <g class="entity">
      <rect x="1010" y="1210" width="250" height="132" rx="16" fill="#FFFFFF" stroke="#B45309" stroke-width="1.3" filter="url(#shadow)" />
      <rect x="1010" y="1210" width="250" height="42" rx="16" fill="#B45309" />
      <path d="M 1010 1238 L 1260 1238 L 1260 1252 L 1010 1252 Z" fill="#B45309" />
      <text x="1026" y="1235" class="entity-title">객실 배정</text>
      <text x="1026" y="1272" class="entity-subtitle">룸잉/배정 결과</text>
      
        <text x="1030" y="1294" class="attr">• 배정객실</text>
      
        <text x="1030" y="1310" class="attr">• 투숙객</text>
      
        <text x="1030" y="1326" class="attr">• 배정상태</text>
      
    </g>
    <g class="entity">
      <rect x="80" y="1600" width="250" height="132" rx="16" fill="#FFFFFF" stroke="#2563EB" stroke-width="1.3" filter="url(#shadow)" />
      <rect x="80" y="1600" width="250" height="42" rx="16" fill="#2563EB" />
      <path d="M 80 1628 L 330 1628 L 330 1642 L 80 1642 Z" fill="#2563EB" />
      <text x="96" y="1625" class="entity-title">Folio</text>
      <text x="96" y="1662" class="entity-subtitle">투숙 정산 장부</text>
      
        <text x="100" y="1684" class="attr">• 정산상태</text>
      
        <text x="100" y="1700" class="attr">• 잔액</text>
      
        <text x="100" y="1716" class="attr">• 청구대상</text>
      
    </g>
    <g class="entity">
      <rect x="390" y="1600" width="250" height="132" rx="16" fill="#FFFFFF" stroke="#2563EB" stroke-width="1.3" filter="url(#shadow)" />
      <rect x="390" y="1600" width="250" height="42" rx="16" fill="#2563EB" />
      <path d="M 390 1628 L 640 1628 L 640 1642 L 390 1642 Z" fill="#2563EB" />
      <text x="406" y="1625" class="entity-title">청구 항목</text>
      <text x="406" y="1662" class="entity-subtitle">객실료/서비스/세금</text>
      
        <text x="410" y="1684" class="attr">• 항목</text>
      
        <text x="410" y="1700" class="attr">• 금액</text>
      
        <text x="410" y="1716" class="attr">• 반영시각</text>
      
    </g>
    <g class="entity">
      <rect x="700" y="1600" width="250" height="132" rx="16" fill="#FFFFFF" stroke="#2563EB" stroke-width="1.3" filter="url(#shadow)" />
      <rect x="700" y="1600" width="250" height="42" rx="16" fill="#2563EB" />
      <path d="M 700 1628 L 950 1628 L 950 1642 L 700 1642 Z" fill="#2563EB" />
      <text x="716" y="1625" class="entity-title">결제</text>
      <text x="716" y="1662" class="entity-subtitle">수납/환불</text>
      
        <text x="720" y="1684" class="attr">• 결제수단</text>
      
        <text x="720" y="1700" class="attr">• 승인번호</text>
      
        <text x="720" y="1716" class="attr">• 금액</text>
      
    </g>
    <g class="entity">
      <rect x="1010" y="1600" width="250" height="132" rx="16" fill="#FFFFFF" stroke="#2563EB" stroke-width="1.3" filter="url(#shadow)" />
      <rect x="1010" y="1600" width="250" height="42" rx="16" fill="#2563EB" />
      <path d="M 1010 1628 L 1260 1628 L 1260 1642 L 1010 1642 Z" fill="#2563EB" />
      <text x="1026" y="1625" class="entity-title">부가서비스 주문</text>
      <text x="1026" y="1662" class="entity-subtitle">POS/골프/렌터카/룸서비스</text>
      
        <text x="1030" y="1684" class="attr">• 서비스유형</text>
      
        <text x="1030" y="1700" class="attr">• 주문상태</text>
      
        <text x="1030" y="1716" class="attr">• 금액</text>
      
    </g>
    <g class="entity">
      <rect x="1320" y="1480" width="250" height="132" rx="16" fill="#FFFFFF" stroke="#2563EB" stroke-width="1.3" filter="url(#shadow)" />
      <rect x="1320" y="1480" width="250" height="42" rx="16" fill="#2563EB" />
      <path d="M 1320 1508 L 1570 1508 L 1570 1522 L 1320 1522 Z" fill="#2563EB" />
      <text x="1336" y="1505" class="entity-title">하우스키핑 작업</text>
      <text x="1336" y="1542" class="entity-subtitle">청소/점검 업무</text>
      
        <text x="1340" y="1564" class="attr">• 작업상태</text>
      
        <text x="1340" y="1580" class="attr">• 담당자</text>
      
        <text x="1340" y="1596" class="attr">• 예정시각</text>
      
    </g>
    <g class="entity">
      <rect x="1320" y="1720" width="250" height="132" rx="16" fill="#FFFFFF" stroke="#2563EB" stroke-width="1.3" filter="url(#shadow)" />
      <rect x="1320" y="1720" width="250" height="42" rx="16" fill="#2563EB" />
      <path d="M 1320 1748 L 1570 1748 L 1570 1762 L 1320 1762 Z" fill="#2563EB" />
      <text x="1336" y="1745" class="entity-title">시설 보수</text>
      <text x="1336" y="1782" class="entity-subtitle">수리 요청/처리</text>
      
        <text x="1340" y="1804" class="attr">• 요청내용</text>
      
        <text x="1340" y="1820" class="attr">• 우선순위</text>
      
        <text x="1340" y="1836" class="attr">• 처리상태</text>
      
    </g>
    <g class="entity">
      <rect x="390" y="1920" width="250" height="132" rx="16" fill="#FFFFFF" stroke="#2563EB" stroke-width="1.3" filter="url(#shadow)" />
      <rect x="390" y="1920" width="250" height="42" rx="16" fill="#2563EB" />
      <path d="M 390 1948 L 640 1948 L 640 1962 L 390 1962 Z" fill="#2563EB" />
      <text x="406" y="1945" class="entity-title">일일 마감</text>
      <text x="406" y="1982" class="entity-subtitle">영업일 정산 확정</text>
      
        <text x="410" y="2004" class="attr">• 마감일</text>
      
        <text x="410" y="2020" class="attr">• 매출</text>
      
        <text x="410" y="2036" class="attr">• 미수</text>
      
        <text x="410" y="2052" class="attr">• 마감상태</text>
      
    </g>
    <g class="entity">
      <rect x="1010" y="1920" width="250" height="132" rx="16" fill="#FFFFFF" stroke="#2563EB" stroke-width="1.3" filter="url(#shadow)" />
      <rect x="1010" y="1920" width="250" height="42" rx="16" fill="#2563EB" />
      <path d="M 1010 1948 L 1260 1948 L 1260 1962 L 1010 1962 Z" fill="#2563EB" />
      <text x="1026" y="1945" class="entity-title">공지/지원</text>
      <text x="1026" y="1982" class="entity-subtitle">공지사항 및 문의</text>
      
        <text x="1030" y="2004" class="attr">• 게시범위</text>
      
        <text x="1030" y="2020" class="attr">• 문의유형</text>
      
        <text x="1030" y="2036" class="attr">• 처리상태</text>
      
    </g></g>
  <text x="58" y="2076" class="subtitle">논리도 기준: 엔티티는 업무 대상, 속성은 대표 속성만 표기했습니다. 실제 컬럼명/타입/인덱스는 물리 ERD와 테이블 정의서에서 확정합니다.</text>
</svg>